<svg width="216" height="42" viewBox="0 0 216 42"><title>masuP.net</title><path fill="#DC0B0B" fill-rule="evenodd" d="M9.2 16.06L8.9 18.4c2-1.98 4.3-2.98 6.9-2.98 1.6 0 2.82.3 3.67.88.85.56 1.6 1.6 2.3 3.13 2.48-2.65 5.17-3.98 8.05-3.98 5 0 7.48 2.3 7.48 6.86 0 .47-.04 1.12-.12 1.96-.07.83-.18 1.86-.33 3.1l-1.7 13.84h-5.9l1.8-14.54c.17-1.36.25-2.35.25-3 0-2.18-1.1-3.27-3.3-3.27-.88 0-1.64.12-2.28.37-.64.26-1.2.66-1.64 1.2-.46.55-.83 1.25-1.12 2.1-.3.87-.52 1.9-.68 3.1L20.6 41.2h-5.9l1.83-14.92c.16-1.35.24-2.27.24-2.77 0-2.07-1.13-3.1-3.4-3.1-3.27 0-5.18 2.25-5.73 6.8l-1.74 14H0l3.1-25.14h6.1zm58.44 0l-3.1 25.14h-5.9l.35-2.72c-2.54 2.2-5.16 3.3-7.86 3.3-3.33 0-6.04-1.12-8.15-3.38-2.1-2.26-3.16-5.2-3.16-8.78 0-4.15 1.2-7.54 3.6-10.2 2.45-2.64 5.57-3.97 9.38-3.97 1.8 0 3.33.3 4.6.88 1.27.6 2.58 1.6 3.92 3.04l.4-3.3h5.9zM60.46 27.9c0-2.2-.64-4.02-1.93-5.4-1.28-1.4-2.93-2.1-4.96-2.1-2.2 0-4.06.85-5.56 2.57-1.48 1.75-2.23 3.88-2.23 6.4 0 2.2.62 4.02 1.87 5.43 1.25 1.4 2.85 2.1 4.8 2.1 2.18 0 4.06-.88 5.64-2.64 1.6-1.8 2.38-3.9 2.38-6.35zm27.37-9.06l-3.34 3.33c-1.57-1.4-3.02-2.1-4.36-2.1-.9 0-1.66.25-2.25.76-.6.5-.9 1.13-.9 1.88 0 .74.24 1.35.74 1.85s1.54 1.2 3.12 2.08c2.26 1.26 3.78 2.42 4.54 3.47.82 1.03 1.23 2.37 1.23 4.03 0 2.38-.83 4.3-2.48 5.74-1.7 1.42-3.9 2.13-6.6 2.13-3.68 0-6.74-1.66-9.16-5l3.86-2.68c1.6 1.9 3.28 2.85 5.08 2.85 1 0 1.83-.27 2.44-.8.62-.53.92-1.23.92-2.08 0-.76-.26-1.36-.77-1.83-.25-.23-.7-.55-1.3-.96-.63-.4-1.48-.9-2.55-1.45-1.88-1.05-3.2-2.08-3.92-3.07-.73-1.05-1.1-2.33-1.1-3.85 0-2.27.84-4.16 2.5-5.65 1.7-1.5 3.8-2.24 6.4-2.24 2.84 0 5.47 1.2 7.87 3.6zm25.72-2.78l-1.8 14.63c-.13 1.23-.3 2.32-.52 3.24-.22.93-.45 1.7-.7 2.32-.5 1.2-1.33 2.25-2.5 3.18-2 1.56-4.63 2.35-7.88 2.35-3.1 0-5.58-.8-7.43-2.4-1.85-1.6-2.77-3.73-2.77-6.42 0-.4.02-.9.06-1.44l.2-1.9 1.67-13.58h5.9l-1.74 14.12-.16 1.6c-.03.44-.05.82-.05 1.12 0 2.65 1.56 3.98 4.67 3.98 1.68 0 2.93-.44 3.73-1.3.8-.88 1.34-2.4 1.6-4.6l1.85-14.92h5.87zM121.8 0h8.66c3.77 0 6.64.6 8.62 1.8 1.62 1 2.9 2.37 3.82 4.15.93 1.83 1.4 3.76 1.4 5.8 0 2.94-.87 5.54-2.6 7.78-2.54 3.33-6.56 5-12.04 5h-4.7l-2.12 16.67h-6.35L121.8 0zm5.9 5.68l-1.76 13.43h4.25c2.68 0 4.74-.64 6.17-1.93 1.44-1.3 2.16-3.15 2.16-5.6 0-3.92-2.68-5.9-8.05-5.9h-2.77zm13.63 32.6c0 .95-.37 1.77-1.1 2.47-.73.7-1.57 1.04-2.54 1.04-.98 0-1.82-.37-2.5-1.08-.7-.7-1.06-1.58-1.06-2.62 0-1 .32-1.83.96-2.5.68-.68 1.5-1.02 2.43-1.02 1.05 0 1.94.37 2.67 1.1.75.73 1.13 1.6 1.13 2.6zm14-22.22l-.27 2.33c2.33-1.97 4.7-2.95 7.07-2.95 2.46 0 4.43.68 5.9 2.05 1.45 1.37 2.17 3.24 2.17 5.6 0 1.3-.1 2.82-.32 4.6l-1.7 13.5h-5.86l1.82-14.78c.07-.55.12-1.04.14-1.47.03-.43.04-.8.04-1.15 0-2.28-1.23-3.4-3.68-3.4-1.52 0-2.8.45-3.9 1.37-.9.73-1.55 1.62-1.98 2.67-.23.54-.42 1.2-.58 1.96-.16.78-.3 1.67-.43 2.7l-1.5 12.1h-5.9l3.1-25.14h5.87zm23.6 14.68c0 1.85.65 3.37 1.93 4.56 1.3 1.2 2.95 1.8 4.96 1.8 2.76 0 4.88-1.04 6.36-3.1l4.4 2.42c-1.53 2.07-3.1 3.5-4.72 4.33-1.64.83-3.7 1.25-6.14 1.25-3.9 0-7-1.15-9.32-3.44-2.32-2.3-3.47-5.37-3.47-9.2 0-4.03 1.27-7.4 3.82-10.1 2.52-2.68 5.72-4.02 9.58-4.02 3.74 0 6.68 1.2 8.84 3.63 2.2 2.43 3.28 5.7 3.28 9.8 0 .42-.02 1.1-.08 2.07h-19.44zM192.47 26c-.62-3.9-2.77-5.83-6.43-5.83-3.47 0-5.73 1.94-6.8 5.82h13.23zm17.42-4.47l-2.44 19.67h-5.9l2.42-19.67h-3.33l.66-5.47h3.35L206.1 4.4h5.9l-1.45 11.66H216l-.67 5.47h-5.44z"/></svg>
